<svg height="926" width="720" xmlns="http://www.w3.org/2000/svg">
<rect height="926" fill="#555" width="720"></rect>
<text fill="#7f7" font-family="Courier New" font-size="12" xml:space="preserve">
<tspan x="10" y="26">2 megabytes installed</tspan>
<tspan x="10" y="42"></tspan>
<tspan x="10" y="58">node_modules</tspan>
<tspan x="10" y="74">└─┬ console-stamp@0.2.5 </tspan>
<tspan x="10" y="90">  ├─┬ chalk@1.1.3 </tspan>
<tspan x="10" y="106">  │ ├── ansi-styles@2.2.1 </tspan>
<tspan x="10" y="122">  │ ├── escape-string-regexp@1.0.5 </tspan>
<tspan x="10" y="138">  │ ├─┬ has-ansi@2.0.0 </tspan>
<tspan x="10" y="154">  │ │ └── ansi-regex@2.1.1 </tspan>
<tspan x="10" y="170">  │ ├── strip-ansi@3.0.1 </tspan>
<tspan x="10" y="186">  │ └── supports-color@2.0.0 </tspan>
<tspan x="10" y="202">  ├─┬ dateformat@1.0.12 </tspan>
<tspan x="10" y="218">  │ ├── get-stdin@4.0.1 </tspan>
<tspan x="10" y="234">  │ └─┬ meow@3.7.0 </tspan>
<tspan x="10" y="250">  │   ├─┬ camelcase-keys@2.1.0 </tspan>
<tspan x="10" y="266">  │   │ └── camelcase@2.1.1 </tspan>
<tspan x="10" y="282">  │   ├── decamelize@1.2.0 </tspan>
<tspan x="10" y="298">  │   ├─┬ loud-rejection@1.6.0 </tspan>
<tspan x="10" y="314">  │   │ ├─┬ currently-unhandled@0.4.1 </tspan>
<tspan x="10" y="330">  │   │ │ └── array-find-index@1.0.2 </tspan>
<tspan x="10" y="346">  │   │ └── signal-exit@3.0.2 </tspan>
<tspan x="10" y="362">  │   ├── map-obj@1.0.1 </tspan>
<tspan x="10" y="378">  │   ├── minimist@1.2.0 </tspan>
<tspan x="10" y="394">  │   ├─┬ normalize-package-data@2.3.6 </tspan>
<tspan x="10" y="410">  │   │ ├── hosted-git-info@2.4.2 </tspan>
<tspan x="10" y="426">  │   │ ├─┬ is-builtin-module@1.0.0 </tspan>
<tspan x="10" y="442">  │   │ │ └── builtin-modules@1.1.1 </tspan>
<tspan x="10" y="458">  │   │ ├── semver@5.3.0 </tspan>
<tspan x="10" y="474">  │   │ └─┬ validate-npm-package-license@3.0.1 </tspan>
<tspan x="10" y="490">  │   │   ├─┬ spdx-correct@1.0.2 </tspan>
<tspan x="10" y="506">  │   │   │ └── spdx-license-ids@1.2.2 </tspan>
<tspan x="10" y="522">  │   │   └── spdx-expression-parse@1.0.4 </tspan>
<tspan x="10" y="538">  │   ├── object-assign@4.1.1 </tspan>
<tspan x="10" y="554">  │   ├─┬ read-pkg-up@1.0.1 </tspan>
<tspan x="10" y="570">  │   │ ├─┬ find-up@1.1.2 </tspan>
<tspan x="10" y="586">  │   │ │ ├── path-exists@2.1.0 </tspan>
<tspan x="10" y="602">  │   │ │ └─┬ pinkie-promise@2.0.1 </tspan>
<tspan x="10" y="618">  │   │ │   └── pinkie@2.0.4 </tspan>
<tspan x="10" y="634">  │   │ └─┬ read-pkg@1.1.0 </tspan>
<tspan x="10" y="650">  │   │   ├─┬ load-json-file@1.1.0 </tspan>
<tspan x="10" y="666">  │   │   │ ├── graceful-fs@4.1.11 </tspan>
<tspan x="10" y="682">  │   │   │ ├─┬ parse-json@2.2.0 </tspan>
<tspan x="10" y="698">  │   │   │ │ └─┬ error-ex@1.3.1 </tspan>
<tspan x="10" y="714">  │   │   │ │   └── is-arrayish@0.2.1 </tspan>
<tspan x="10" y="730">  │   │   │ ├── pify@2.3.0 </tspan>
<tspan x="10" y="746">  │   │   │ └─┬ strip-bom@2.0.0 </tspan>
<tspan x="10" y="762">  │   │   │   └── is-utf8@0.2.1 </tspan>
<tspan x="10" y="778">  │   │   └── path-type@1.1.0 </tspan>
<tspan x="10" y="794">  │   ├─┬ redent@1.0.0 </tspan>
<tspan x="10" y="810">  │   │ ├─┬ indent-string@2.1.0 </tspan>
<tspan x="10" y="826">  │   │ │ └─┬ repeating@2.0.1 </tspan>
<tspan x="10" y="842">  │   │ │   └─┬ is-finite@1.0.2 </tspan>
<tspan x="10" y="858">  │   │ │     └── number-is-nan@1.0.1 </tspan>
<tspan x="10" y="874">  │   │ └── strip-indent@1.0.1 </tspan>
<tspan x="10" y="890">  │   └── trim-newlines@1.0.0 </tspan>
<tspan x="10" y="906">  └── merge@1.2.0</tspan>
</text>
</svg>
